<mxfile host="65bd71144e">
    <diagram id="EO0CBDHCjQbVkdrb1u_T" name="Page-1">
        <mxGraphModel dx="1506" dy="1695" grid="1" gridSize="10" guides="1" tooltips="1" connect="1" arrows="1" fold="1" page="1" pageScale="1" pageWidth="827" pageHeight="1169" math="0" shadow="0">
            <root>
                <mxCell id="0"/>
                <mxCell id="1" parent="0"/>
                <mxCell id="12" value="" style="edgeStyle=none;html=1;fontColor=#000000;" edge="1" parent="1" source="2">
                    <mxGeometry relative="1" as="geometry">
                        <mxPoint x="190" y="210" as="targetPoint"/>
                    </mxGeometry>
                </mxCell>
                <mxCell id="2" value="createApp(App)开始" style="text;html=1;align=center;verticalAlign=middle;resizable=0;points=[];autosize=1;strokeColor=none;fillColor=none;" vertex="1" parent="1">
                    <mxGeometry x="-5" y="195" width="130" height="30" as="geometry"/>
                </mxCell>
                <mxCell id="3" value="&lt;meta charset=&quot;utf-8&quot;&gt;&lt;div style=&quot;color: rgb(171, 178, 191); background-color: rgb(40, 44, 52); font-family: Monaco, Menlo, &amp;quot;Courier New&amp;quot;, monospace, Menlo, Monaco, &amp;quot;Courier New&amp;quot;, monospace; font-weight: normal; font-size: 13px; line-height: 20px;&quot;&gt;&lt;div&gt;&lt;span style=&quot;color: #c678dd;&quot;&gt;export&lt;/span&gt;&lt;span style=&quot;color: #abb2bf;&quot;&gt; &lt;/span&gt;&lt;span style=&quot;color: #c678dd;&quot;&gt;const&lt;/span&gt;&lt;span style=&quot;color: #abb2bf;&quot;&gt; &lt;/span&gt;&lt;span style=&quot;color: #61afef;&quot;&gt;render&lt;/span&gt;&lt;span style=&quot;color: #abb2bf;&quot;&gt; &lt;/span&gt;&lt;span style=&quot;color: #56b6c2;&quot;&gt;=&lt;/span&gt;&lt;span style=&quot;color: #abb2bf;&quot;&gt; (&lt;/span&gt;&lt;span style=&quot;color: #e06c75;font-style: italic;&quot;&gt;vnode&lt;/span&gt;&lt;span style=&quot;color: #abb2bf;&quot;&gt;, &lt;/span&gt;&lt;span style=&quot;color: #e06c75;font-style: italic;&quot;&gt;container&lt;/span&gt;&lt;span style=&quot;color: #abb2bf;&quot;&gt;) &lt;/span&gt;&lt;span style=&quot;color: #c678dd;&quot;&gt;=&amp;gt;&lt;/span&gt;&lt;span style=&quot;color: #abb2bf;&quot;&gt; {&lt;/span&gt;&lt;/div&gt;&lt;div&gt;&lt;span style=&quot;color: #abb2bf;&quot;&gt;  &lt;/span&gt;&lt;span style=&quot;color: #c678dd;&quot;&gt;return&lt;/span&gt;&lt;span style=&quot;color: #abb2bf;&quot;&gt; &lt;/span&gt;&lt;span style=&quot;color: #61afef;&quot;&gt;createRenderer&lt;/span&gt;&lt;span style=&quot;color: #abb2bf;&quot;&gt;(&lt;/span&gt;&lt;span style=&quot;color: #e5c07b;&quot;&gt;renderOptions&lt;/span&gt;&lt;span style=&quot;color: #abb2bf;&quot;&gt;).&lt;/span&gt;&lt;span style=&quot;color: #61afef;&quot;&gt;render&lt;/span&gt;&lt;span style=&quot;color: #abb2bf;&quot;&gt;(&lt;/span&gt;&lt;span style=&quot;color: #e06c75;font-style: italic;&quot;&gt;vnode&lt;/span&gt;&lt;span style=&quot;color: #abb2bf;&quot;&gt;, &lt;/span&gt;&lt;span style=&quot;color: #e06c75;font-style: italic;&quot;&gt;container&lt;/span&gt;&lt;span style=&quot;color: #abb2bf;&quot;&gt;)&lt;/span&gt;&lt;/div&gt;&lt;div&gt;&lt;span style=&quot;color: #abb2bf;&quot;&gt;}&lt;/span&gt;&lt;/div&gt;&lt;/div&gt;" style="text;whiteSpace=wrap;html=1;" vertex="1" parent="1">
                    <mxGeometry x="50" y="50" width="510" height="80" as="geometry"/>
                </mxCell>
                <mxCell id="15" value="" style="edgeStyle=none;html=1;fontColor=#000000;" edge="1" parent="1" source="11">
                    <mxGeometry relative="1" as="geometry">
                        <mxPoint x="430" y="210" as="targetPoint"/>
                    </mxGeometry>
                </mxCell>
                <mxCell id="11" value="传入App组件通过mount挂载" style="text;html=1;align=center;verticalAlign=middle;resizable=0;points=[];autosize=1;strokeColor=none;fillColor=none;fontColor=#000000;" vertex="1" parent="1">
                    <mxGeometry x="190" y="195" width="170" height="30" as="geometry"/>
                </mxCell>
                <mxCell id="13" value="&lt;meta charset=&quot;utf-8&quot;&gt;&lt;div style=&quot;color: rgb(171, 178, 191); background-color: rgb(40, 44, 52); font-family: Monaco, Menlo, &amp;quot;Courier New&amp;quot;, monospace, Menlo, Monaco, &amp;quot;Courier New&amp;quot;, monospace; font-weight: normal; font-size: 13px; line-height: 20px;&quot;&gt;&lt;div&gt;&lt;span style=&quot;color: #61afef;&quot;&gt;mount&lt;/span&gt;&lt;span style=&quot;color: #abb2bf;&quot;&gt;(&lt;/span&gt;&lt;span style=&quot;color: #e06c75;font-style: italic;&quot;&gt;container&lt;/span&gt;&lt;span style=&quot;color: #abb2bf;&quot;&gt;) {&lt;/span&gt;&lt;/div&gt;&lt;div&gt;&lt;span style=&quot;color: #abb2bf;&quot;&gt;        &lt;/span&gt;&lt;span style=&quot;color: #7f848e;font-style: italic;&quot;&gt;// rootComponent App组件&lt;/span&gt;&lt;/div&gt;&lt;div&gt;&lt;span style=&quot;color: #abb2bf;&quot;&gt;        &lt;/span&gt;&lt;span style=&quot;color: #c678dd;&quot;&gt;const&lt;/span&gt;&lt;span style=&quot;color: #abb2bf;&quot;&gt; &lt;/span&gt;&lt;span style=&quot;color: #e5c07b;&quot;&gt;vnode&lt;/span&gt;&lt;span style=&quot;color: #abb2bf;&quot;&gt; &lt;/span&gt;&lt;span style=&quot;color: #56b6c2;&quot;&gt;=&lt;/span&gt;&lt;span style=&quot;color: #abb2bf;&quot;&gt; &lt;/span&gt;&lt;span style=&quot;color: #61afef;&quot;&gt;createVNode&lt;/span&gt;&lt;span style=&quot;color: #abb2bf;&quot;&gt;(&lt;/span&gt;&lt;span style=&quot;color: #e06c75;font-style: italic;&quot;&gt;rootComponent&lt;/span&gt;&lt;span style=&quot;color: #abb2bf;&quot;&gt;, &lt;/span&gt;&lt;span style=&quot;color: #e06c75;font-style: italic;&quot;&gt;rootProps&lt;/span&gt;&lt;span style=&quot;color: #abb2bf;&quot;&gt;)&lt;/span&gt;&lt;/div&gt;&lt;div&gt;&lt;span style=&quot;color: #abb2bf;&quot;&gt;        &lt;/span&gt;&lt;span style=&quot;color: #7f848e;font-style: italic;&quot;&gt;// container #app&lt;/span&gt;&lt;/div&gt;&lt;div&gt;&lt;span style=&quot;color: #abb2bf;&quot;&gt;        &lt;/span&gt;&lt;span style=&quot;color: #61afef;&quot;&gt;render&lt;/span&gt;&lt;span style=&quot;color: #abb2bf;&quot;&gt;(&lt;/span&gt;&lt;span style=&quot;color: #e5c07b;&quot;&gt;vnode&lt;/span&gt;&lt;span style=&quot;color: #abb2bf;&quot;&gt;, &lt;/span&gt;&lt;span style=&quot;color: #e06c75;font-style: italic;&quot;&gt;container&lt;/span&gt;&lt;span style=&quot;color: #abb2bf;&quot;&gt;)&lt;/span&gt;&lt;/div&gt;&lt;div&gt;&lt;span style=&quot;color: #abb2bf;&quot;&gt;        &lt;/span&gt;&lt;span style=&quot;color: #e5c07b;&quot;&gt;app&lt;/span&gt;&lt;span style=&quot;color: #abb2bf;&quot;&gt;.&lt;/span&gt;&lt;span style=&quot;color: #e06c75;&quot;&gt;_container&lt;/span&gt;&lt;span style=&quot;color: #abb2bf;&quot;&gt; &lt;/span&gt;&lt;span style=&quot;color: #56b6c2;&quot;&gt;=&lt;/span&gt;&lt;span style=&quot;color: #abb2bf;&quot;&gt; &lt;/span&gt;&lt;span style=&quot;color: #e06c75;font-style: italic;&quot;&gt;container&lt;/span&gt;&lt;/div&gt;&lt;div&gt;&lt;span style=&quot;color: #abb2bf;&quot;&gt;      }&lt;/span&gt;&lt;/div&gt;&lt;/div&gt;" style="text;whiteSpace=wrap;html=1;fontColor=#000000;" vertex="1" parent="1">
                    <mxGeometry x="-10" y="250" width="430" height="160" as="geometry"/>
                </mxCell>
                <mxCell id="20" value="" style="edgeStyle=none;html=1;fontColor=#000000;" edge="1" parent="1" source="16" target="19">
                    <mxGeometry relative="1" as="geometry"/>
                </mxCell>
                <mxCell id="16" value="通过createVNode创建一个vnode" style="text;html=1;align=center;verticalAlign=middle;resizable=0;points=[];autosize=1;strokeColor=none;fillColor=none;fontColor=#000000;" vertex="1" parent="1">
                    <mxGeometry x="430" y="195" width="200" height="30" as="geometry"/>
                </mxCell>
                <mxCell id="17" value="&lt;meta charset=&quot;utf-8&quot;&gt;&lt;div style=&quot;color: rgb(171, 178, 191); background-color: rgb(40, 44, 52); font-family: Monaco, Menlo, &amp;quot;Courier New&amp;quot;, monospace, Menlo, Monaco, &amp;quot;Courier New&amp;quot;, monospace; font-weight: normal; font-size: 13px; line-height: 20px;&quot;&gt;&lt;div&gt;&lt;span style=&quot;color: #c678dd;&quot;&gt;const&lt;/span&gt;&lt;span style=&quot;color: #abb2bf;&quot;&gt; &lt;/span&gt;&lt;span style=&quot;color: #e5c07b;&quot;&gt;vnode&lt;/span&gt;&lt;span style=&quot;color: #abb2bf;&quot;&gt; &lt;/span&gt;&lt;span style=&quot;color: #56b6c2;&quot;&gt;=&lt;/span&gt;&lt;span style=&quot;color: #abb2bf;&quot;&gt; {&lt;/span&gt;&lt;/div&gt;&lt;div&gt;&lt;span style=&quot;color: #abb2bf;&quot;&gt;    &lt;/span&gt;&lt;span style=&quot;color: #e06c75;&quot;&gt;__v_isVnode&lt;/span&gt;&lt;span style=&quot;color: #abb2bf;&quot;&gt;: &lt;/span&gt;&lt;span style=&quot;color: #d19a66;&quot;&gt;true&lt;/span&gt;&lt;span style=&quot;color: #abb2bf;&quot;&gt;,&lt;/span&gt;&lt;/div&gt;&lt;div&gt;&lt;span style=&quot;color: #abb2bf;&quot;&gt;    &lt;/span&gt;&lt;span style=&quot;color: #e06c75;&quot;&gt;type&lt;/span&gt;&lt;span style=&quot;color: #abb2bf;&quot;&gt;,&lt;/span&gt;&lt;/div&gt;&lt;div&gt;&lt;span style=&quot;color: #abb2bf;&quot;&gt;    &lt;/span&gt;&lt;span style=&quot;color: #e06c75;&quot;&gt;props&lt;/span&gt;&lt;span style=&quot;color: #abb2bf;&quot;&gt;,&lt;/span&gt;&lt;/div&gt;&lt;div&gt;&lt;span style=&quot;color: #abb2bf;&quot;&gt;    &lt;/span&gt;&lt;span style=&quot;color: #e06c75;&quot;&gt;children&lt;/span&gt;&lt;span style=&quot;color: #abb2bf;&quot;&gt;,&lt;/span&gt;&lt;/div&gt;&lt;div&gt;&lt;span style=&quot;color: #abb2bf;&quot;&gt;    &lt;/span&gt;&lt;span style=&quot;color: #e06c75;&quot;&gt;el&lt;/span&gt;&lt;span style=&quot;color: #abb2bf;&quot;&gt;: &lt;/span&gt;&lt;span style=&quot;color: #d19a66;&quot;&gt;null&lt;/span&gt;&lt;span style=&quot;color: #abb2bf;&quot;&gt;,&lt;/span&gt;&lt;span style=&quot;color: #7f848e;font-style: italic;&quot;&gt;//稍后会将虚拟节点和真实节点对应起来&lt;/span&gt;&lt;/div&gt;&lt;div&gt;&lt;span style=&quot;color: #abb2bf;&quot;&gt;    &lt;/span&gt;&lt;span style=&quot;color: #e06c75;&quot;&gt;key&lt;/span&gt;&lt;span style=&quot;color: #abb2bf;&quot;&gt;: &lt;/span&gt;&lt;span style=&quot;color: #e06c75;font-style: italic;&quot;&gt;props&lt;/span&gt;&lt;span style=&quot;color: #abb2bf;&quot;&gt; &lt;/span&gt;&lt;span style=&quot;color: #56b6c2;&quot;&gt;&amp;amp;&amp;amp;&lt;/span&gt;&lt;span style=&quot;color: #abb2bf;&quot;&gt; &lt;/span&gt;&lt;span style=&quot;color: #e06c75;font-style: italic;&quot;&gt;props&lt;/span&gt;&lt;span style=&quot;color: #abb2bf;&quot;&gt;.&lt;/span&gt;&lt;span style=&quot;color: #e06c75;&quot;&gt;key&lt;/span&gt;&lt;span style=&quot;color: #abb2bf;&quot;&gt;,&lt;/span&gt;&lt;/div&gt;&lt;div&gt;&lt;span style=&quot;color: #abb2bf;&quot;&gt;    &lt;/span&gt;&lt;span style=&quot;color: #e06c75;&quot;&gt;shapeFlag&lt;/span&gt;&lt;span style=&quot;color: #7f848e;font-style: italic;&quot;&gt;//能判断出自己的类型 和儿子的类型&lt;/span&gt;&lt;/div&gt;&lt;div&gt;&lt;span style=&quot;color: #abb2bf;&quot;&gt;  }&lt;/span&gt;&lt;/div&gt;&lt;/div&gt;" style="text;whiteSpace=wrap;html=1;fontColor=#000000;" vertex="1" parent="1">
                    <mxGeometry x="430" y="230" width="210" height="120" as="geometry"/>
                </mxCell>
                <mxCell id="23" value="" style="edgeStyle=none;html=1;fontColor=#000000;" edge="1" parent="1" source="19">
                    <mxGeometry relative="1" as="geometry">
                        <mxPoint x="900.4285714285716" y="50" as="targetPoint"/>
                    </mxGeometry>
                </mxCell>
                <mxCell id="41" value="" style="edgeStyle=none;html=1;fontColor=#000000;" edge="1" parent="1" source="19" target="40">
                    <mxGeometry relative="1" as="geometry"/>
                </mxCell>
                <mxCell id="19" value="render执行也就是patch方法" style="text;html=1;align=center;verticalAlign=middle;resizable=0;points=[];autosize=1;strokeColor=none;fillColor=none;fontColor=#000000;" vertex="1" parent="1">
                    <mxGeometry x="660" y="195" width="170" height="30" as="geometry"/>
                </mxCell>
                <mxCell id="21" value="&lt;meta charset=&quot;utf-8&quot;&gt;&lt;div style=&quot;color: rgb(171, 178, 191); background-color: rgb(40, 44, 52); font-family: Monaco, Menlo, &amp;quot;Courier New&amp;quot;, monospace, Menlo, Monaco, &amp;quot;Courier New&amp;quot;, monospace; font-weight: normal; font-size: 13px; line-height: 20px;&quot;&gt;&lt;div&gt;&lt;span style=&quot;color: #61afef;&quot;&gt;patch&lt;/span&gt;&lt;span style=&quot;color: #abb2bf;&quot;&gt;(&lt;/span&gt;&lt;span style=&quot;color: #d19a66;&quot;&gt;null&lt;/span&gt;&lt;span style=&quot;color: #abb2bf;&quot;&gt;, &lt;/span&gt;&lt;span style=&quot;color: #e06c75;font-style: italic;&quot;&gt;vnode&lt;/span&gt;&lt;span style=&quot;color: #abb2bf;&quot;&gt;, &lt;/span&gt;&lt;span style=&quot;color: #e06c75;font-style: italic;&quot;&gt;container&lt;/span&gt;&lt;span style=&quot;color: #abb2bf;&quot;&gt;)&lt;/span&gt;&lt;/div&gt;&lt;/div&gt;" style="text;whiteSpace=wrap;html=1;fontColor=#000000;" vertex="1" parent="1">
                    <mxGeometry x="600" y="150" width="260" height="40" as="geometry"/>
                </mxCell>
                <mxCell id="26" value="" style="edgeStyle=none;html=1;fontColor=#000000;" edge="1" parent="1" source="24" target="25">
                    <mxGeometry relative="1" as="geometry"/>
                </mxCell>
                <mxCell id="24" value="处理组件" style="text;html=1;align=center;verticalAlign=middle;resizable=0;points=[];autosize=1;strokeColor=none;fillColor=none;fontColor=#000000;" vertex="1" parent="1">
                    <mxGeometry x="875" y="15" width="70" height="30" as="geometry"/>
                </mxCell>
                <mxCell id="28" value="" style="edgeStyle=none;html=1;fontColor=#000000;" edge="1" parent="1" source="25" target="27">
                    <mxGeometry relative="1" as="geometry"/>
                </mxCell>
                <mxCell id="30" value="" style="edgeStyle=none;html=1;fontColor=#000000;" edge="1" parent="1" source="25" target="29">
                    <mxGeometry relative="1" as="geometry"/>
                </mxCell>
                <mxCell id="32" value="" style="edgeStyle=none;html=1;fontColor=#000000;" edge="1" parent="1" source="25" target="31">
                    <mxGeometry relative="1" as="geometry"/>
                </mxCell>
                <mxCell id="25" value="组件初次渲染mountComponent" style="text;html=1;align=center;verticalAlign=middle;resizable=0;points=[];autosize=1;strokeColor=none;fillColor=none;fontColor=#000000;" vertex="1" parent="1">
                    <mxGeometry x="960" y="-60" width="190" height="30" as="geometry"/>
                </mxCell>
                <mxCell id="27" value="&lt;span style=&quot;background-color: rgb(255, 255, 255);&quot;&gt;1. 创建实例&lt;span style=&quot;font-family: Monaco, Menlo, &amp;quot;Courier New&amp;quot;, monospace, Menlo, Monaco, &amp;quot;Courier New&amp;quot;, monospace; font-size: 13px;&quot;&gt;const&lt;/span&gt;&lt;span style=&quot;font-family: Monaco, Menlo, &amp;quot;Courier New&amp;quot;, monospace, Menlo, Monaco, &amp;quot;Courier New&amp;quot;, monospace; font-size: 13px;&quot;&gt; &lt;/span&gt;&lt;span style=&quot;font-family: Monaco, Menlo, &amp;quot;Courier New&amp;quot;, monospace, Menlo, Monaco, &amp;quot;Courier New&amp;quot;, monospace; font-size: 13px;&quot;&gt;instance&lt;/span&gt;&lt;span style=&quot;font-family: Monaco, Menlo, &amp;quot;Courier New&amp;quot;, monospace, Menlo, Monaco, &amp;quot;Courier New&amp;quot;, monospace; font-size: 13px;&quot;&gt; &lt;/span&gt;&lt;span style=&quot;font-family: Monaco, Menlo, &amp;quot;Courier New&amp;quot;, monospace, Menlo, Monaco, &amp;quot;Courier New&amp;quot;, monospace; font-size: 13px;&quot;&gt;=&lt;/span&gt;&lt;span style=&quot;font-family: Monaco, Menlo, &amp;quot;Courier New&amp;quot;, monospace, Menlo, Monaco, &amp;quot;Courier New&amp;quot;, monospace; font-size: 13px;&quot;&gt; &lt;/span&gt;&lt;span style=&quot;font-family: Monaco, Menlo, &amp;quot;Courier New&amp;quot;, monospace, Menlo, Monaco, &amp;quot;Courier New&amp;quot;, monospace; font-size: 13px; font-style: italic;&quot;&gt;vnode&lt;/span&gt;&lt;span style=&quot;font-family: Monaco, Menlo, &amp;quot;Courier New&amp;quot;, monospace, Menlo, Monaco, &amp;quot;Courier New&amp;quot;, monospace; font-size: 13px;&quot;&gt;.&lt;/span&gt;&lt;span style=&quot;font-family: Monaco, Menlo, &amp;quot;Courier New&amp;quot;, monospace, Menlo, Monaco, &amp;quot;Courier New&amp;quot;, monospace; font-size: 13px;&quot;&gt;component&lt;/span&gt;&lt;span style=&quot;font-family: Monaco, Menlo, &amp;quot;Courier New&amp;quot;, monospace, Menlo, Monaco, &amp;quot;Courier New&amp;quot;, monospace; font-size: 13px;&quot;&gt; &lt;/span&gt;&lt;span style=&quot;font-family: Monaco, Menlo, &amp;quot;Courier New&amp;quot;, monospace, Menlo, Monaco, &amp;quot;Courier New&amp;quot;, monospace; font-size: 13px;&quot;&gt;=&lt;/span&gt;&lt;span style=&quot;font-family: Monaco, Menlo, &amp;quot;Courier New&amp;quot;, monospace, Menlo, Monaco, &amp;quot;Courier New&amp;quot;, monospace; font-size: 13px;&quot;&gt; &lt;/span&gt;&lt;span style=&quot;font-family: Monaco, Menlo, &amp;quot;Courier New&amp;quot;, monospace, Menlo, Monaco, &amp;quot;Courier New&amp;quot;, monospace; font-size: 13px;&quot;&gt;createComponentInstance&lt;/span&gt;&lt;span style=&quot;font-family: Monaco, Menlo, &amp;quot;Courier New&amp;quot;, monospace, Menlo, Monaco, &amp;quot;Courier New&amp;quot;, monospace; font-size: 13px;&quot;&gt;(&lt;/span&gt;&lt;span style=&quot;font-family: Monaco, Menlo, &amp;quot;Courier New&amp;quot;, monospace, Menlo, Monaco, &amp;quot;Courier New&amp;quot;, monospace; font-size: 13px; font-style: italic;&quot;&gt;vnode&lt;/span&gt;&lt;span style=&quot;font-family: Monaco, Menlo, &amp;quot;Courier New&amp;quot;, monospace, Menlo, Monaco, &amp;quot;Courier New&amp;quot;, monospace; font-size: 13px;&quot;&gt;)&lt;/span&gt;&lt;/span&gt;" style="text;html=1;align=center;verticalAlign=middle;resizable=0;points=[];autosize=1;strokeColor=none;fillColor=none;fontColor=#000000;" vertex="1" parent="1">
                    <mxGeometry x="1160" y="-110" width="590" height="30" as="geometry"/>
                </mxCell>
                <mxCell id="36" value="" style="edgeStyle=none;html=1;fontColor=#000000;" edge="1" parent="1" source="29" target="35">
                    <mxGeometry relative="1" as="geometry"/>
                </mxCell>
                <mxCell id="29" value="2. 给组件赋予属性setupComponent(instance)" style="text;html=1;align=center;verticalAlign=middle;resizable=0;points=[];autosize=1;strokeColor=none;fillColor=none;fontColor=#000000;" vertex="1" parent="1">
                    <mxGeometry x="1270" y="-50" width="260" height="30" as="geometry"/>
                </mxCell>
                <mxCell id="38" value="" style="edgeStyle=none;html=1;fontColor=#000000;" edge="1" parent="1" source="31">
                    <mxGeometry relative="1" as="geometry">
                        <mxPoint x="1595" y="25" as="targetPoint"/>
                    </mxGeometry>
                </mxCell>
                <mxCell id="31" value="3.创建组件的Effect：setupRenderEffect(instance,container,anchor)" style="text;html=1;align=center;verticalAlign=middle;resizable=0;points=[];autosize=1;strokeColor=none;fillColor=none;fontColor=#000000;" vertex="1" parent="1">
                    <mxGeometry x="1135" y="10" width="380" height="30" as="geometry"/>
                </mxCell>
                <mxCell id="33" value="&lt;meta charset=&quot;utf-8&quot;&gt;&lt;div style=&quot;color: rgb(171, 178, 191); background-color: rgb(40, 44, 52); font-family: Monaco, Menlo, &amp;quot;Courier New&amp;quot;, monospace, Menlo, Monaco, &amp;quot;Courier New&amp;quot;, monospace; font-weight: normal; font-size: 13px; line-height: 20px;&quot;&gt;&lt;div&gt;&lt;span style=&quot;color: #c678dd;&quot;&gt;const&lt;/span&gt;&lt;span style=&quot;color: #abb2bf;&quot;&gt; &lt;/span&gt;&lt;span style=&quot;color: #e5c07b;&quot;&gt;instance&lt;/span&gt;&lt;span style=&quot;color: #abb2bf;&quot;&gt; &lt;/span&gt;&lt;span style=&quot;color: #56b6c2;&quot;&gt;=&lt;/span&gt;&lt;span style=&quot;color: #abb2bf;&quot;&gt; {&lt;/span&gt;&lt;/div&gt;&lt;div&gt;&lt;span style=&quot;color: #abb2bf;&quot;&gt;    &lt;/span&gt;&lt;span style=&quot;color: #7f848e;font-style: italic;&quot;&gt;// 组件的实例&lt;/span&gt;&lt;/div&gt;&lt;div&gt;&lt;span style=&quot;color: #abb2bf;&quot;&gt;    &lt;/span&gt;&lt;span style=&quot;color: #e06c75;&quot;&gt;data&lt;/span&gt;&lt;span style=&quot;color: #abb2bf;&quot;&gt;: &lt;/span&gt;&lt;span style=&quot;color: #d19a66;&quot;&gt;null&lt;/span&gt;&lt;span style=&quot;color: #abb2bf;&quot;&gt;,&lt;/span&gt;&lt;/div&gt;&lt;div&gt;&lt;span style=&quot;color: #abb2bf;&quot;&gt;    &lt;/span&gt;&lt;span style=&quot;color: #e06c75;&quot;&gt;isMounted&lt;/span&gt;&lt;span style=&quot;color: #abb2bf;&quot;&gt;: &lt;/span&gt;&lt;span style=&quot;color: #d19a66;&quot;&gt;false&lt;/span&gt;&lt;span style=&quot;color: #abb2bf;&quot;&gt;,&lt;/span&gt;&lt;/div&gt;&lt;div&gt;&lt;span style=&quot;color: #abb2bf;&quot;&gt;    &lt;/span&gt;&lt;span style=&quot;color: #e06c75;&quot;&gt;subTree&lt;/span&gt;&lt;span style=&quot;color: #abb2bf;&quot;&gt;: &lt;/span&gt;&lt;span style=&quot;color: #d19a66;&quot;&gt;null&lt;/span&gt;&lt;span style=&quot;color: #abb2bf;&quot;&gt;,&lt;/span&gt;&lt;/div&gt;&lt;div&gt;&lt;span style=&quot;color: #abb2bf;&quot;&gt;    &lt;/span&gt;&lt;span style=&quot;color: #e06c75;&quot;&gt;vnode&lt;/span&gt;&lt;span style=&quot;color: #abb2bf;&quot;&gt;,&lt;/span&gt;&lt;/div&gt;&lt;div&gt;&lt;span style=&quot;color: #abb2bf;&quot;&gt;    &lt;/span&gt;&lt;span style=&quot;color: #e06c75;&quot;&gt;update&lt;/span&gt;&lt;span style=&quot;color: #abb2bf;&quot;&gt;: &lt;/span&gt;&lt;span style=&quot;color: #d19a66;&quot;&gt;null&lt;/span&gt;&lt;span style=&quot;color: #abb2bf;&quot;&gt;, &lt;/span&gt;&lt;span style=&quot;color: #7f848e;font-style: italic;&quot;&gt;// 组件的更新方法&lt;/span&gt;&lt;/div&gt;&lt;div&gt;&lt;span style=&quot;color: #abb2bf;&quot;&gt;    &lt;/span&gt;&lt;span style=&quot;color: #e06c75;&quot;&gt;props&lt;/span&gt;&lt;span style=&quot;color: #abb2bf;&quot;&gt;: {},&lt;/span&gt;&lt;/div&gt;&lt;div&gt;&lt;span style=&quot;color: #abb2bf;&quot;&gt;    &lt;/span&gt;&lt;span style=&quot;color: #e06c75;&quot;&gt;attrs&lt;/span&gt;&lt;span style=&quot;color: #abb2bf;&quot;&gt;: {},&lt;/span&gt;&lt;/div&gt;&lt;div&gt;&lt;span style=&quot;color: #abb2bf;&quot;&gt;    &lt;/span&gt;&lt;span style=&quot;color: #e06c75;&quot;&gt;propsOptions&lt;/span&gt;&lt;span style=&quot;color: #abb2bf;&quot;&gt;: &lt;/span&gt;&lt;span style=&quot;color: #e06c75;font-style: italic;&quot;&gt;vnode&lt;/span&gt;&lt;span style=&quot;color: #abb2bf;&quot;&gt;.&lt;/span&gt;&lt;span style=&quot;color: #e5c07b;&quot;&gt;type&lt;/span&gt;&lt;span style=&quot;color: #abb2bf;&quot;&gt;.&lt;/span&gt;&lt;span style=&quot;color: #e06c75;&quot;&gt;props&lt;/span&gt;&lt;span style=&quot;color: #abb2bf;&quot;&gt; &lt;/span&gt;&lt;span style=&quot;color: #56b6c2;&quot;&gt;||&lt;/span&gt;&lt;span style=&quot;color: #abb2bf;&quot;&gt; {},&lt;/span&gt;&lt;/div&gt;&lt;div&gt;&lt;span style=&quot;color: #abb2bf;&quot;&gt;    &lt;/span&gt;&lt;span style=&quot;color: #e06c75;&quot;&gt;proxy&lt;/span&gt;&lt;span style=&quot;color: #abb2bf;&quot;&gt;: &lt;/span&gt;&lt;span style=&quot;color: #d19a66;&quot;&gt;null&lt;/span&gt;&lt;span style=&quot;color: #abb2bf;&quot;&gt;,&lt;/span&gt;&lt;/div&gt;&lt;div&gt;&lt;span style=&quot;color: #abb2bf;&quot;&gt;    &lt;/span&gt;&lt;span style=&quot;color: #e06c75;&quot;&gt;setupState&lt;/span&gt;&lt;span style=&quot;color: #abb2bf;&quot;&gt;:&lt;/span&gt;&lt;span style=&quot;color: #d19a66;&quot;&gt;null&lt;/span&gt;&lt;span style=&quot;color: #abb2bf;&quot;&gt;,&lt;/span&gt;&lt;/div&gt;&lt;div&gt;&lt;span style=&quot;color: #abb2bf;&quot;&gt;    &lt;/span&gt;&lt;span style=&quot;color: #e06c75;&quot;&gt;exopsed&lt;/span&gt;&lt;span style=&quot;color: #abb2bf;&quot;&gt;:&lt;/span&gt;&lt;span style=&quot;color: #d19a66;&quot;&gt;null&lt;/span&gt;&lt;span style=&quot;color: #abb2bf;&quot;&gt;,&lt;/span&gt;&lt;/div&gt;&lt;div&gt;&lt;span style=&quot;color: #abb2bf;&quot;&gt;    &lt;/span&gt;&lt;span style=&quot;color: #e06c75;&quot;&gt;slots&lt;/span&gt;&lt;span style=&quot;color: #abb2bf;&quot;&gt;:{}&lt;/span&gt;&lt;/div&gt;&lt;div&gt;&lt;span style=&quot;color: #abb2bf;&quot;&gt;    &lt;/span&gt;&lt;span style=&quot;color: #7f848e;font-style: italic;&quot;&gt;// 组件的生命周期&lt;/span&gt;&lt;/div&gt;&lt;div&gt;&lt;span style=&quot;color: #abb2bf;&quot;&gt;    &lt;/span&gt;&lt;span style=&quot;color: #7f848e;font-style: italic;&quot;&gt;// 插槽&lt;/span&gt;&lt;/div&gt;&lt;div&gt;&lt;span style=&quot;color: #abb2bf;&quot;&gt;    &lt;/span&gt;&lt;span style=&quot;color: #7f848e;font-style: italic;&quot;&gt;// 组件的事件&lt;/span&gt;&lt;/div&gt;&lt;div&gt;&lt;span style=&quot;color: #abb2bf;&quot;&gt;  }&lt;/span&gt;&lt;/div&gt;&lt;/div&gt;" style="text;whiteSpace=wrap;html=1;fontColor=#000000;" vertex="1" parent="1">
                    <mxGeometry x="1320" y="-490" width="320" height="380" as="geometry"/>
                </mxCell>
                <mxCell id="35" value="1. 初始化props&lt;br&gt;2. 初始化slots&lt;br&gt;3. 如果有setup函数了获取setup函数执行的返回值也就是响应式数据&lt;br&gt;" style="text;html=1;align=center;verticalAlign=middle;resizable=0;points=[];autosize=1;strokeColor=none;fillColor=none;fontColor=#000000;" vertex="1" parent="1">
                    <mxGeometry x="1540" y="-75" width="380" height="60" as="geometry"/>
                </mxCell>
                <mxCell id="39" value="创建componentFn 也就是Effect的第一个函数&lt;br&gt;如果是第一次渲染生成vnode通过patch更新&lt;br&gt;如果是更新也是生成新的vnode通过patch更新&lt;br&gt;创建Effect将Effect的run方法绑定为组件的update方法&lt;br&gt;调用update方法更新" style="text;html=1;align=center;verticalAlign=middle;resizable=0;points=[];autosize=1;strokeColor=none;fillColor=none;fontColor=#000000;" vertex="1" parent="1">
                    <mxGeometry x="1575" y="-20" width="310" height="90" as="geometry"/>
                </mxCell>
                <mxCell id="43" value="" style="edgeStyle=none;html=1;fontColor=#000000;" edge="1" parent="1" source="40" target="42">
                    <mxGeometry relative="1" as="geometry"/>
                </mxCell>
                <mxCell id="40" value="处理元素" style="text;html=1;align=center;verticalAlign=middle;resizable=0;points=[];autosize=1;strokeColor=none;fillColor=none;fontColor=#000000;" vertex="1" parent="1">
                    <mxGeometry x="960" y="195" width="70" height="30" as="geometry"/>
                </mxCell>
                <mxCell id="42" value="创建元素&lt;br&gt;添加props属性&lt;br&gt;处理子节点" style="text;html=1;align=center;verticalAlign=middle;resizable=0;points=[];autosize=1;strokeColor=none;fillColor=none;fontColor=#000000;" vertex="1" parent="1">
                    <mxGeometry x="1095" y="180" width="100" height="60" as="geometry"/>
                </mxCell>
            </root>
        </mxGraphModel>
    </diagram>
</mxfile>